<svg width="192" height="36" viewBox="0 0 192 36" fill="none" xmlns="http://www.w3.org/2000/svg">
<ellipse cx="112.268" cy="18" rx="2.01031" ry="2.04021" fill="#003366"/>
<path fill-rule="evenodd" clip-rule="evenodd" d="M122.321 19.8283L120.996 20.1759C121.376 21.4666 121.619 22.7945 121.723 24.1373L123.131 23.7897C122.984 22.4464 122.713 21.1201 122.321 19.8283Z" fill="#003366"/>
<path fill-rule="evenodd" clip-rule="evenodd" d="M127.288 23.7564C127.63 22.7779 127.991 21.2972 128.355 20.0354L126.861 19.6426C126.672 20.9087 126.393 22.1594 126.028 23.385L127.288 23.7564Z" fill="#003366"/>
<path fill-rule="evenodd" clip-rule="evenodd" d="M135.083 13.4625H132.972C132.778 12.6503 132.496 11.8622 132.132 11.1128H131.299L130.473 11.3509C130.761 12.0399 131.01 12.7449 131.219 13.4625H128.205V15.0504H139.807V13.4625H136.835C137.131 12.8769 137.49 12.0746 137.79 11.4223L136.732 11.1128H135.925C135.705 11.9172 135.424 12.7028 135.083 13.4625Z" fill="#003366"/>
<path fill-rule="evenodd" clip-rule="evenodd" d="M135.925 11.1965H136.731L135.976 10.8945C135.962 10.9756 135.946 11.0861 135.925 11.1965Z" fill="#003366"/>
<path fill-rule="evenodd" clip-rule="evenodd" d="M132.018 10.909L131.296 11.1915H132.129C132.091 11.0941 132.065 10.9999 132.018 10.909Z" fill="#003366"/>
<path fill-rule="evenodd" clip-rule="evenodd" d="M125.865 24.5989C126.748 24.4268 127.648 24.2513 128.547 24.0611L128.695 25.768C125.939 26.3679 123.014 26.9774 120.813 27.4345L120.408 25.5847C121.348 25.4323 122.502 25.2348 123.762 24.9967V18.838H120.666V17.0977H123.762V15.117H121.712V14.3886L121.691 14.4081C121.38 14.7031 121.088 14.9799 120.774 15.2361C120.565 14.5238 120.302 13.829 119.988 13.1578C121.785 11.7638 123.252 9.97912 124.281 7.93466L125.796 8.60838C125.646 8.9131 125.498 9.1964 125.348 9.4797C126.779 10.3272 128.146 11.3295 128.958 12.1555L127.975 13.7886L127.741 13.5506V15.117H125.498V17.0977H128.402V18.838H125.498V24.6705C125.62 24.6467 125.742 24.6228 125.865 24.5989ZM124.468 10.9509C123.915 11.8107 123.301 12.6287 122.631 13.3982H127.586C126.623 12.4864 125.58 11.6671 124.468 10.9509Z" fill="#003366"/>
<path fill-rule="evenodd" clip-rule="evenodd" d="M132.019 10.9033C132.056 10.9676 132.092 11.039 132.129 11.1104H135.925C135.946 11.0295 135.964 10.9557 135.976 10.889L136.732 11.1104H139.399V9.54636H135.176C134.91 8.97082 134.588 8.42373 134.215 7.91324L132.507 8.3489C132.699 8.71789 132.934 9.13212 133.147 9.53921H128.782V11.1057H131.296L132.019 10.9033Z" fill="#003366"/>
<path fill-rule="evenodd" clip-rule="evenodd" d="M138.416 25.8013C138.352 26.0632 138.245 26.2156 138.139 26.2584C137.992 26.3248 137.831 26.355 137.67 26.3465H137.008C136.865 26.3559 136.722 26.3174 136.603 26.237C136.518 26.1727 136.495 25.9751 136.495 25.6704V22.3375H138.869V16.0312H129.338V22.3423H131.174C130.94 24.7348 130.192 25.8466 126.903 26.5203C127.347 26.978 127.702 27.5167 127.949 28.1082C131.773 27.1297 132.755 25.4752 133.032 22.3423H134.646V25.5418C134.646 26.7821 134.775 27.175 135.136 27.4797C135.498 27.7844 136.075 27.9368 136.544 27.9368H137.825C138.224 27.9426 138.621 27.8765 138.998 27.7415C139.343 27.6079 139.615 27.3306 139.746 26.9797C139.896 26.6322 139.98 25.7394 140.044 24.8681C139.47 24.6875 138.933 24.4001 138.463 24.0206C138.48 24.6146 138.464 25.2091 138.416 25.8013ZM131.024 17.3358H137.123V18.5261H131.024V17.3358ZM131.024 19.7736V21.0353H137.123V19.7736H131.024Z" fill="#003366"/>
<path fill-rule="evenodd" clip-rule="evenodd" d="M149.971 21.2758L148.646 22.0161C149.31 23.0894 149.884 24.217 150.363 25.3871L151.752 24.5396C151.268 23.3938 150.671 22.3003 149.971 21.2758V21.2758Z" fill="#003366"/>
<path fill-rule="evenodd" clip-rule="evenodd" d="M141.618 25.3443C142.097 25.6263 142.554 25.9446 142.986 26.2965C143.878 24.9336 144.603 23.4649 145.144 21.9233L143.584 21.4472C143.143 22.8464 142.479 24.1629 141.618 25.3443H141.618Z" fill="#003366"/>
<path fill-rule="evenodd" clip-rule="evenodd" d="M154.585 13.5553V10.67L160.823 9.45588L159.263 7.97513L152.727 9.21068V15.9503C152.727 19.8569 152.577 24.1944 150.891 26.7179C151.449 27.0391 151.96 27.44 152.406 27.9082C154.306 25.1443 154.585 20.133 154.585 17.0001V15.4265" fill="#003366"/>
<rect x="142.089" y="9.52255" width="9.39709" height="1.67597" fill="#003366"/>
<path fill-rule="evenodd" clip-rule="evenodd" d="M176.541 23.604H178.291L178.305 25.061H176.553V27.4107H174.759V25.061H167.018V23.604H168.958V18.1643H167.505V16.7049H177.972V18.1643H176.541V23.604ZM170.71 23.604H174.747V22.5803H170.71V23.604ZM174.747 21.3615H170.71V20.3616H174.747V21.3615ZM170.71 19.1641H174.747V18.1643H170.71V19.1641Z" fill="#003366"/>
<path fill-rule="evenodd" clip-rule="evenodd" d="M173.572 8.01561V14.9575H179.701V25.8252C179.701 26.1085 179.617 26.1942 179.338 26.218C179.058 26.2418 178.184 26.2394 177.351 26.1965C177.629 26.7595 177.824 27.3612 177.928 27.982C179.274 27.982 180.213 27.9392 180.853 27.6344C181.451 27.3297 181.644 26.8298 181.644 25.8275V8.01561H173.572ZM179.701 13.5434H175.463V12.1722H179.685L179.701 13.5434ZM175.463 10.8009H179.701L179.685 9.40826H175.463V10.8009Z" fill="#003366"/>
<path fill-rule="evenodd" clip-rule="evenodd" d="M171.927 8.01561H164.003V28.013H165.948V14.9575H171.93L171.927 8.01561ZM170.067 13.5411H165.946V12.1722H170.067V13.5411ZM165.946 10.7986H170.067V9.40826H165.946V10.7986Z" fill="#003366"/>
<path fill-rule="evenodd" clip-rule="evenodd" d="M144.761 11.0652L143.21 11.608L144.32 14.0005L145.91 13.4268L144.761 11.0652Z" fill="#003366"/>
<path fill-rule="evenodd" clip-rule="evenodd" d="M151.829 13.7863V15.4836H147.898V17.531H151.529V19.2522H147.898V27.8725H145.976V19.2522H141.876V17.531H145.976V15.4836H141.747V13.7863H151.829Z" fill="#003366"/>
<path fill-rule="evenodd" clip-rule="evenodd" d="M148.808 10.9795L147.257 14.091L148.963 14.1338L150.471 11.558L148.808 10.9795Z" fill="#003366"/>
<path fill-rule="evenodd" clip-rule="evenodd" d="M146.063 9.52255C145.85 9.10832 145.615 8.69647 145.423 8.33223L147.131 7.89658C147.504 8.40707 147.826 8.95416 148.092 9.52969L146.063 9.52255Z" fill="#003366"/>
<rect x="153.687" y="13.5244" width="7.51814" height="1.86166" fill="#003366"/>
<rect x="157.029" y="14.8504" width="1.99624" height="13.0626" fill="#003366"/>
<path fill-rule="evenodd" clip-rule="evenodd" d="M0 0V13.9315H2.63663V2.67108H189.366V13.9315H192V0H0Z" fill="#003366"/>
<path fill-rule="evenodd" clip-rule="evenodd" d="M189.366 33.3289H2.63663V22.0685H0V36H192V22.0685H189.366V33.3289Z" fill="#003366"/>
<path fill-rule="evenodd" clip-rule="evenodd" d="M46.1528 9.79633H37.7808V26.2061H41.2994V13.2673C41.2994 13.2673 42.7209 13.2078 44.9447 13.2078C47.2905 13.2078 48.4422 14.8028 48.4422 17.2072V26.2061H51.9608V16.305C51.9867 12.4841 49.9763 9.8368 46.1528 9.79633Z" fill="url(#paint0_radial_7533_47420)"/>
<path fill-rule="evenodd" clip-rule="evenodd" d="M55.5333 12.0889C57.0456 10.4653 58.9425 9.65347 61.2241 9.65347C63.6332 9.65347 65.5239 10.4058 66.8868 11.9413C68.2497 13.4768 68.9323 15.4598 68.9323 17.9571C68.9336 18.3293 68.914 18.7013 68.8736 19.0713H56.8704C56.8849 20.2371 57.405 21.3371 58.2919 22.078C59.183 22.8499 60.3201 23.267 61.4915 23.2517C63.476 23.2517 64.8999 22.4089 65.7585 20.7544L68.3083 22.4684C66.9736 24.9657 64.3956 26.3489 61.5502 26.3489C59.2091 26.3489 57.1941 25.5633 55.6225 23.9682C54.0508 22.3732 53.2509 20.364 53.2509 17.9833C53.2109 15.789 54.032 13.6685 55.5333 12.0889ZM61.2241 12.7221C59.1189 12.6666 57.3157 14.2412 57.0557 16.3621H65.3433C65.226 14.1053 63.4761 12.7221 61.2241 12.7221Z" fill="url(#paint1_radial_7533_47420)"/>
<path fill-rule="evenodd" clip-rule="evenodd" d="M89.359 9.79633L86.0398 21.3543H85.9788L82.364 9.79633H78.8078L75.2212 21.3234H75.193L71.8738 9.79633H68.1675L73.2367 26.1894H76.8515L80.5273 14.7671H80.5859L84.2312 26.1894H87.907L92.9738 9.79633H89.359Z" fill="url(#paint2_radial_7533_47420)"/>
<path fill-rule="evenodd" clip-rule="evenodd" d="M99.2817 16.2717C97.2362 15.8217 96.3472 15.2789 96.3472 14.2267C96.3472 13.3554 97.4731 12.6626 98.5709 12.6626C100.082 12.6626 101.179 13.3768 101.89 14.829L104.621 13.2625C103.525 10.8557 101.538 9.65349 98.6929 9.65349C97.2317 9.62282 95.8059 10.1122 94.6629 11.0366C93.5582 11.8682 92.9177 13.1905 92.9435 14.5862C92.9261 15.6706 93.3287 16.7186 94.0648 17.5048C94.9233 18.438 96.258 19.0689 98.0056 19.4308C100.168 19.8807 101.266 20.6044 101.266 21.5352C101.266 22.6184 100.11 23.3088 98.7774 23.3088C97.0884 23.3088 95.8428 22.4375 94.9843 20.7211L92.228 22.2852C93.4431 24.961 95.6364 26.3156 98.7774 26.3156C100.555 26.3156 102.007 25.8656 103.105 24.9324C104.18 24.056 104.793 22.7225 104.764 21.3234C104.764 18.8285 102.868 17.0835 99.2817 16.2717Z" fill="url(#paint3_radial_7533_47420)"/>
<path fill-rule="evenodd" clip-rule="evenodd" d="M28.9067 9.78204C26.5609 9.78204 25.0244 10.6248 23.3941 12.4293C22.416 10.6557 20.7857 9.78204 18.5033 9.78204H10.3564V26.2084H13.8751V17.2715C13.8751 14.8361 15.2098 13.1816 17.3421 13.1816C19.6879 13.1816 20.7505 14.7766 20.7505 17.1811V26.2037H24.255V17.243C24.255 14.8076 25.5898 13.1816 27.7526 13.1816C30.0983 13.1816 31.1304 14.7147 31.1304 17.1525V26.1989H34.6491V16.2788C34.6561 12.4293 32.7303 9.78204 28.9067 9.78204Z" fill="#003366"/>
<defs>
<radialGradient id="paint0_radial_7533_47420" cx="0" cy="0" r="1" gradientUnits="userSpaceOnUse" gradientTransform="translate(21.4707 6.92647) rotate(14.6582) scale(60.1342 68.4598)">
<stop stop-color="#1EB5EA"/>
<stop offset="1" stop-color="#121E7C"/>
</radialGradient>
<radialGradient id="paint1_radial_7533_47420" cx="0" cy="0" r="1" gradientUnits="userSpaceOnUse" gradientTransform="translate(21.4727 6.77005) rotate(14.6582) scale(60.1295 63.5297)">
<stop stop-color="#1EB5EA"/>
<stop offset="1" stop-color="#121E7C"/>
</radialGradient>
<radialGradient id="paint2_radial_7533_47420" cx="0" cy="0" r="1" gradientUnits="userSpaceOnUse" gradientTransform="translate(21.4716 6.518) rotate(14.6582) scale(60.2118 43.0769)">
<stop stop-color="#1EB5EA"/>
<stop offset="1" stop-color="#121E7C"/>
</radialGradient>
<radialGradient id="paint3_radial_7533_47420" cx="0" cy="0" r="1" gradientUnits="userSpaceOnUse" gradientTransform="translate(21.7939 6.77066) rotate(14.6582) scale(60.1295 77.7013)">
<stop stop-color="#1EB5EA"/>
<stop offset="1" stop-color="#121E7C"/>
</radialGradient>
</defs>
</svg>
